<?xml version="1.0" standalone="no"?><!DOCTYPE svg PUBLIC "-//W3C//DTD SVG 1.1//EN" "http://www.w3.org/Graphics/SVG/1.1/DTD/svg11.dtd"><svg height="48" node-id="1" sillyvg="true" template-height="48" template-width="48" version="1.1" viewBox="0 0 48 48" width="48" xmlns="http://www.w3.org/2000/svg" xmlns:xlink="http://www.w3.org/1999/xlink"><defs node-id="96"><linearGradient gradientUnits="userSpaceOnUse" id="linear-gradient" node-id="5" spreadMethod="pad" x1="-6.81" x2="22.5" y1="-6.62" y2="25.47"><stop offset="0" stop-color="#f3c57a"></stop><stop offset="0.49" stop-color="#f39369"></stop><stop offset="1" stop-color="#e94867"></stop></linearGradient><linearGradient gradientUnits="userSpaceOnUse" id="linear-gradient-2" node-id="9" spreadMethod="pad" x1="7.43" x2="19.92" y1="-2.31" y2="33.7"><stop offset="0" stop-color="#f3c57a"></stop><stop offset="0.49" stop-color="#f39369"></stop><stop offset="1" stop-color="#e94867"></stop></linearGradient><linearGradient gradientUnits="userSpaceOnUse" id="linear-gradient-3" node-id="10" spreadMethod="pad" x1="14.68" x2="14.68" y1="42.88" y2="2.58"><stop offset="0" stop-color="#f3c57a"></stop><stop offset="0.49" stop-color="#f39369"></stop><stop offset="1" stop-color="#e94867"></stop></linearGradient><linearGradient gradientUnits="userSpaceOnUse" id="linear-gradient-4" node-id="11" spreadMethod="pad" x1="-0.19000006" x2="-29.5" y1="-6.62" y2="25.47"><stop offset="0" stop-color="#f3c57a"></stop><stop offset="0.49" stop-color="#f39369"></stop><stop offset="1" stop-color="#e94867"></stop></linearGradient><linearGradient gradientUnits="userSpaceOnUse" id="linear-gradient-5" node-id="12" spreadMethod="pad" x1="-14.43" x2="-26.92" y1="-2.31" y2="33.7"><stop offset="0" stop-color="#f3c57a"></stop><stop offset="0.49" stop-color="#f39369"></stop><stop offset="1" stop-color="#e94867"></stop></linearGradient><linearGradient gradientUnits="userSpaceOnUse" id="linear-gradient-6" node-id="13" spreadMethod="pad" x1="-21.68" x2="-21.68" y1="42.88" y2="2.58"><stop offset="0" stop-color="#f3c57a"></stop><stop offset="0.49" stop-color="#f39369"></stop><stop offset="1" stop-color="#e94867"></stop></linearGradient><linearGradient gradientUnits="userSpaceOnUse" id="linear-gradient-7" node-id="14" spreadMethod="pad" x1="24" x2="24" y1="78.44" y2="-9.47"><stop offset="0" stop-color="#f3c57a"></stop><stop offset="0.49" stop-color="#f39369"></stop><stop offset="1" stop-color="#e94867"></stop></linearGradient><linearGradient gradientUnits="userSpaceOnUse" id="linear-gradient-8" node-id="15" spreadMethod="pad" x1="15.32" x2="15.32" y1="54.66" y2="16.22"><stop offset="0" stop-color="#f3c57a"></stop><stop offset="0.49" stop-color="#f39369"></stop><stop offset="1" stop-color="#e94867"></stop></linearGradient><linearGradient gradientUnits="userSpaceOnUse" id="linear-gradient-9" node-id="16" spreadMethod="pad" x1="-28.04" x2="-28.04" y1="54.66" y2="16.22"><stop offset="0" stop-color="#f3c57a"></stop><stop offset="0.49" stop-color="#f39369"></stop><stop offset="1" stop-color="#e94867"></stop></linearGradient><linearGradient gradientUnits="userSpaceOnUse" id="linear-gradient-10" node-id="17" spreadMethod="pad" x1="24" x2="24" y1="44.8" y2="35.67"><stop offset="0" stop-color="#f3c57a"></stop><stop offset="0.49" stop-color="#f39369"></stop><stop offset="1" stop-color="#e94867"></stop></linearGradient><linearGradient gradientUnits="userSpaceOnUse" id="linear-gradient-11" node-id="18" spreadMethod="pad" x1="18.27" x2="18.27" y1="36.96" y2="45.04"><stop offset="0" stop-color="#ffffff"></stop><stop offset="0.52" stop-color="#cce2e6"></stop><stop offset="1" stop-color="#8fa1bb"></stop></linearGradient><linearGradient gradientUnits="userSpaceOnUse" id="linear-gradient-12" node-id="22" spreadMethod="pad" x1="-13.07" x2="-13.07" y1="36.96" y2="45.04"><stop offset="0" stop-color="#ffffff"></stop><stop offset="0.52" stop-color="#cce2e6"></stop><stop offset="1" stop-color="#8fa1bb"></stop></linearGradient><linearGradient gradientUnits="userSpaceOnUse" id="linear-gradient-13" node-id="23" spreadMethod="pad" x1="24" x2="24" y1="47.18" y2="38.4"><stop offset="0" stop-color="#f3c57a"></stop><stop offset="0.49" stop-color="#f39369"></stop><stop offset="1" stop-color="#e94867"></stop></linearGradient><linearGradient gradientUnits="userSpaceOnUse" id="linear-gradient-14" node-id="24" spreadMethod="pad" x1="24" x2="24" y1="41.66" y2="29.69"><stop offset="0" stop-color="#f3c57a"></stop><stop offset="0.49" stop-color="#f39369"></stop><stop offset="1" stop-color="#e94867"></stop></linearGradient><linearGradient gradientUnits="userSpaceOnUse" id="linear-gradient-15" node-id="25" spreadMethod="pad" x1="24" x2="24" y1="42.79" y2="31.85"><stop offset="0" stop-color="#f3c57a"></stop><stop offset="0.49" stop-color="#f39369"></stop><stop offset="1" stop-color="#e94867"></stop></linearGradient><linearGradient gradientUnits="userSpaceOnUse" id="linear-gradient-16" node-id="26" spreadMethod="pad" x1="24" x2="24" y1="32.18" y2="25.16"><stop offset="0" stop-color="#f3c57a"></stop><stop offset="0.49" stop-color="#f39369"></stop><stop offset="1" stop-color="#e94867"></stop></linearGradient><linearGradient gradientUnits="userSpaceOnUse" id="linear-gradient-17" node-id="27" spreadMethod="pad" x1="24" x2="24" y1="37.86" y2="20.64"><stop offset="0" stop-color="#f3c57a"></stop><stop offset="0.49" stop-color="#f39369"></stop><stop offset="1" stop-color="#e94867"></stop></linearGradient><linearGradient gradientUnits="userSpaceOnUse" id="linear-gradient-18" node-id="28" spreadMethod="pad" x1="24" x2="24" y1="41.98" y2="27.85"><stop offset="0" stop-color="#f3c57a"></stop><stop offset="0.49" stop-color="#f39369"></stop><stop offset="1" stop-color="#e94867"></stop></linearGradient><linearGradient gradientUnits="userSpaceOnUse" id="linear-gradient-19" node-id="29" spreadMethod="pad" x1="24" x2="24" y1="47.48" y2="-13.44"><stop offset="0" stop-color="#f3c57a"></stop><stop offset="0.49" stop-color="#f39369"></stop><stop offset="1" stop-color="#e94867"></stop></linearGradient><linearGradient gradientUnits="userSpaceOnUse" id="linear-gradient-20" node-id="30" spreadMethod="pad" x1="15.32" x2="15.32" y1="42.35" y2="33.96"><stop offset="0" stop-color="#273a9b"></stop><stop offset="0.56" stop-color="#202f65"></stop><stop offset="1" stop-color="#021e2f"></stop></linearGradient><linearGradient gradientUnits="userSpaceOnUse" id="linear-gradient-21" node-id="34" spreadMethod="pad" x1="14.59" x2="14.59" y1="30.24" y2="27.59"><stop offset="0" stop-color="#273a9b"></stop><stop offset="0.56" stop-color="#202f65"></stop><stop offset="1" stop-color="#021e2f"></stop></linearGradient><linearGradient gradientUnits="userSpaceOnUse" id="linear-gradient-22" node-id="35" spreadMethod="pad" x1="32.68" x2="32.68" y1="42.35" y2="33.96"><stop offset="0" stop-color="#273a9b"></stop><stop offset="0.56" stop-color="#202f65"></stop><stop offset="1" stop-color="#021e2f"></stop></linearGradient><linearGradient gradientUnits="userSpaceOnUse" id="linear-gradient-23" node-id="36" spreadMethod="pad" x1="31.96" x2="31.96" y1="30.24" y2="27.59"><stop offset="0" stop-color="#273a9b"></stop><stop offset="0.56" stop-color="#202f65"></stop><stop offset="1" stop-color="#021e2f"></stop></linearGradient><linearGradient gradientUnits="userSpaceOnUse" id="linear-gradient-24" node-id="37" spreadMethod="pad" x1="24" x2="24" y1="38.85" y2="28.91"><stop offset="0" stop-color="#273a9b"></stop><stop offset="0.56" stop-color="#202f65"></stop><stop offset="1" stop-color="#021e2f"></stop></linearGradient><linearGradient gradientUnits="userSpaceOnUse" id="linear-gradient-25" node-id="38" spreadMethod="pad" x1="23.99" x2="23.99" y1="40.52" y2="30.73"><stop offset="0" stop-color="#273a9b"></stop><stop offset="0.56" stop-color="#202f65"></stop><stop offset="1" stop-color="#021e2f"></stop></linearGradient><linearGradient gradientUnits="userSpaceOnUse" id="linear-gradient-26" node-id="39" spreadMethod="pad" x1="15.32" x2="15.32" y1="38.13" y2="22.27"><stop offset="0" stop-color="#f3c57a"></stop><stop offset="0.49" stop-color="#f39369"></stop><stop offset="1" stop-color="#e94867"></stop></linearGradient><linearGradient gradientUnits="userSpaceOnUse" id="linear-gradient-27" node-id="40" spreadMethod="pad" x1="-28.04" x2="-28.04" y1="38.13" y2="22.27"><stop offset="0" stop-color="#f3c57a"></stop><stop offset="0.49" stop-color="#f39369"></stop><stop offset="1" stop-color="#e94867"></stop></linearGradient><linearGradient gradientUnits="userSpaceOnUse" id="linear-gradient-28" node-id="41" spreadMethod="pad" x1="24" x2="24" y1="19.11" y2="2.43"><stop offset="0" stop-color="#f3c57a"></stop><stop offset="0.49" stop-color="#f39369"></stop><stop offset="1" stop-color="#e94867"></stop></linearGradient><linearGradient gradientUnits="userSpaceOnUse" id="linear-gradient-29" node-id="42" spreadMethod="pad" x1="24" x2="24" y1="11.67" y2="1.6"><stop offset="0" stop-color="#f3c57a"></stop><stop offset="0.49" stop-color="#f39369"></stop><stop offset="1" stop-color="#e94867"></stop></linearGradient><linearGradient gradientUnits="userSpaceOnUse" id="linear-gradient-30" node-id="43" spreadMethod="pad" x1="18.73" x2="18.73" y1="39.53" y2="28.41"><stop offset="0" stop-color="#f3c57a"></stop><stop offset="0.49" stop-color="#f39369"></stop><stop offset="1" stop-color="#e94867"></stop></linearGradient><linearGradient gradientUnits="userSpaceOnUse" id="linear-gradient-31" node-id="44" spreadMethod="pad" x1="20.53" x2="20.53" y1="41.14" y2="30.01"><stop offset="0" stop-color="#f3c57a"></stop><stop offset="0.49" stop-color="#f39369"></stop><stop offset="1" stop-color="#e94867"></stop></linearGradient><linearGradient gradientUnits="userSpaceOnUse" id="linear-gradient-32" node-id="45" spreadMethod="pad" x1="18.34" x2="18.34" y1="41.52" y2="30.4"><stop offset="0" stop-color="#f3c57a"></stop><stop offset="0.49" stop-color="#f39369"></stop><stop offset="1" stop-color="#e94867"></stop></linearGradient><linearGradient gradientUnits="userSpaceOnUse" id="linear-gradient-33" node-id="46" spreadMethod="pad" x1="-9.71" x2="-9.71" y1="39.53" y2="28.41"><stop offset="0" stop-color="#f3c57a"></stop><stop offset="0.49" stop-color="#f39369"></stop><stop offset="1" stop-color="#e94867"></stop></linearGradient><linearGradient gradientUnits="userSpaceOnUse" id="linear-gradient-34" node-id="47" spreadMethod="pad" x1="-11.51" x2="-11.51" y1="41.14" y2="30.01"><stop offset="0" stop-color="#f3c57a"></stop><stop offset="0.49" stop-color="#f39369"></stop><stop offset="1" stop-color="#e94867"></stop></linearGradient><linearGradient gradientUnits="userSpaceOnUse" id="linear-gradient-35" node-id="48" spreadMethod="pad" x1="-9.32" x2="-9.32" y1="41.52" y2="30.4"><stop offset="0" stop-color="#f3c57a"></stop><stop offset="0.49" stop-color="#f39369"></stop><stop offset="1" stop-color="#e94867"></stop></linearGradient><linearGradient gradientUnits="userSpaceOnUse" id="linear-gradient-36" node-id="49" spreadMethod="pad" x1="6.66" x2="6.66" y1="30.52" y2="8.57"><stop offset="0" stop-color="#f3c57a"></stop><stop offset="0.49" stop-color="#f39369"></stop><stop offset="1" stop-color="#e94867"></stop></linearGradient><linearGradient gradientUnits="userSpaceOnUse" id="linear-gradient-37" node-id="50" spreadMethod="pad" x1="5.13" x2="5.13" y1="32.57" y2="16.41"><stop offset="0" stop-color="#f3c57a"></stop><stop offset="0.49" stop-color="#f39369"></stop><stop offset="1" stop-color="#e94867"></stop></linearGradient><linearGradient gradientUnits="userSpaceOnUse" id="linear-gradient-38" node-id="51" spreadMethod="pad" x1="41.34" x2="41.34" y1="30.52" y2="8.57"><stop offset="0" stop-color="#f3c57a"></stop><stop offset="0.49" stop-color="#f39369"></stop><stop offset="1" stop-color="#e94867"></stop></linearGradient><linearGradient gradientUnits="userSpaceOnUse" id="linear-gradient-39" node-id="52" spreadMethod="pad" x1="42.87" x2="42.87" y1="32.57" y2="16.41"><stop offset="0" stop-color="#f3c57a"></stop><stop offset="0.49" stop-color="#f39369"></stop><stop offset="1" stop-color="#e94867"></stop></linearGradient></defs><path d="M 8.94 4.50 C 8.44 4.47 7.97 4.69 7.68 5.10 C 4.77 9.20 4.38 14.58 6.66 19.06 C 8.94 23.53 13.52 26.38 18.55 26.43 C 21.70 22.51 22.40 17.16 20.38 12.56 C 18.37 7.95 13.96 4.85 8.94 4.50 Z" fill="url(#linear-gradient)" fill-rule="nonzero" node-id="412" stroke="none" target-height="21.962431" target-width="18.026398" target-x="4.376359" target-y="4.467569"></path><path d="M 7.68 7.13 C 7.97 6.72 8.44 6.50 8.94 6.53 C 15.64 6.99 20.98 12.30 21.48 19.00 C 21.65 16.68 21.22 14.35 20.22 12.24 C 18.14 7.81 13.82 4.84 8.94 4.50 C 8.44 4.47 7.97 4.69 7.68 5.10 C 5.85 7.69 4.98 10.84 5.23 14.00 C 5.41 11.53 6.25 9.15 7.68 7.13 Z" fill="url(#linear-gradient-2)" fill-rule="nonzero" node-id="414" stroke="none" target-height="14.532431" target-width="16.671852" target-x="4.982378" target-y="4.467569"></path><path d="M 20.49 29.08 C 22.68 25.04 22.66 20.17 20.45 16.14 C 18.23 12.12 14.12 9.49 9.54 9.18 C 9.26 9.17 8.99 9.23 8.75 9.37 C 6.60 13.52 6.75 18.48 9.14 22.49 C 11.53 26.50 15.82 28.99 20.49 29.08 Z" fill="url(#linear-gradient-3)" fill-rule="nonzero" node-id="416" stroke="none" target-height="19.914967" target-width="16.07762" target-x="6.601034" target-y="9.165033"></path><path d="M 39.06 4.50 C 39.56 4.47 40.03 4.69 40.32 5.10 C 43.23 9.20 43.62 14.58 41.34 19.06 C 39.06 23.53 34.48 26.38 29.45 26.43 C 26.30 22.51 25.60 17.16 27.62 12.56 C 29.63 7.95 34.04 4.85 39.06 4.50 Z" fill="url(#linear-gradient-4)" fill-rule="nonzero" node-id="418" stroke="none" target-height="21.962431" target-width="18.0264" target-x="25.597242" target-y="4.467569"></path><path d="M 40.32 7.13 C 40.03 6.72 39.56 6.50 39.06 6.53 C 32.36 6.99 27.02 12.30 26.52 19.00 C 26.24 15.41 27.41 11.86 29.77 9.13 C 32.12 6.41 35.47 4.74 39.06 4.50 C 39.56 4.47 40.03 4.69 40.32 5.10 C 42.15 7.69 43.02 10.84 42.77 14.00 C 42.59 11.53 41.75 9.15 40.32 7.13 Z" fill="url(#linear-gradient-5)" fill-rule="nonzero" node-id="420" stroke="none" target-height="14.532431" target-width="16.775393" target-x="26.242231" target-y="4.467569"></path><path d="M 27.51 29.08 C 25.32 25.04 25.34 20.17 27.55 16.14 C 29.77 12.12 33.88 9.49 38.46 9.18 C 38.74 9.17 39.01 9.23 39.25 9.37 C 41.40 13.52 41.25 18.48 38.86 22.49 C 36.47 26.50 32.18 28.99 27.51 29.08 Z" fill="url(#linear-gradient-6)" fill-rule="nonzero" node-id="422" stroke="none" target-height="19.914967" target-width="16.077621" target-x="25.321346" target-y="9.165033"></path><path d="M 45.00 35.36 L 43.18 24.70 C 42.38 20.08 39.57 16.05 35.51 13.70 L 35.51 13.70 C 28.39 9.59 19.63 9.59 12.51 13.70 L 12.51 13.70 C 8.45 16.05 5.64 20.08 4.84 24.70 L 3.00 35.36 C 2.71 36.97 3.53 38.58 5.00 39.30 L 10.41 41.90 C 19.01 46.03 29.01 46.03 37.61 41.90 L 43.00 39.30 C 44.47 38.58 45.29 36.97 45.00 35.36 Z" fill="url(#linear-gradient-7)" fill-rule="nonzero" node-id="424" stroke="none" target-height="36.43638" target-width="42.574394" target-x="2.712802" target-y="9.591446"></path><path d="M 18.35 28.92 C 18.35 29.65 16.99 31.97 15.35 31.97 C 13.71 31.97 12.35 29.64 12.35 28.92 C 12.35 28.20 13.71 24.60 15.35 24.60 C 16.99 24.60 18.35 28.19 18.35 28.92 Z" fill="url(#linear-gradient-8)" fill-rule="nonzero" node-id="426" stroke="none" target-height="7.369999" target-width="6" target-x="12.35" target-y="24.6"></path><path d="M 29.65 28.92 C 29.65 29.65 31.01 31.97 32.65 31.97 C 34.29 31.97 35.65 29.64 35.65 28.92 C 35.65 28.20 34.29 24.60 32.65 24.60 C 31.01 24.60 29.65 28.19 29.65 28.92 Z" fill="url(#linear-gradient-9)" fill-rule="nonzero" node-id="428" stroke="none" target-height="7.369999" target-width="6.000002" target-x="29.65" target-y="24.6"></path><path d="M 27.85 33.50 C 26.49 33.47 25.15 33.84 24.00 34.56 C 22.85 33.84 21.51 33.47 20.15 33.50 C 17.35 33.50 15.31 34.92 15.31 36.91 C 15.31 38.90 17.58 40.50 20.38 40.50 C 21.32 40.51 22.25 40.31 23.11 39.93 C 23.68 39.67 24.32 39.67 24.89 39.93 C 25.75 40.31 26.68 40.51 27.62 40.50 C 30.42 40.50 32.69 38.89 32.69 36.91 C 32.69 34.93 30.64 33.50 27.85 33.50 Z" fill="url(#linear-gradient-10)" fill-rule="nonzero" node-id="430" stroke="none" target-height="7.0345993" target-width="17.379997" target-x="15.31" target-y="33.472027"></path><path d="M 20.00 38.00 L 18.68 40.33 C 18.61 40.46 18.47 40.54 18.32 40.54 C 18.16 40.54 18.02 40.46 17.95 40.33 L 16.63 37.77 L 18.31 36.32 Z" fill="url(#linear-gradient-11)" fill-rule="nonzero" node-id="432" stroke="none" target-height="4.2222137" target-width="3.3700008" target-x="16.63" target-y="36.32"></path><path d="M 28.00 38.00 L 29.32 40.33 C 29.39 40.46 29.53 40.54 29.68 40.54 C 29.84 40.54 29.98 40.46 30.05 40.33 L 31.37 37.77 L 29.69 36.32 Z" fill="url(#linear-gradient-12)" fill-rule="nonzero" node-id="434" stroke="none" target-height="4.2222137" target-width="3.3700008" target-x="28" target-y="36.32"></path><path d="M 28.34 38.71 C 28.34 40.55 26.40 43.71 24.00 43.71 C 21.60 43.71 19.66 40.51 19.66 38.71 C 19.66 36.91 21.60 35.39 24.00 35.39 C 26.40 35.39 28.34 36.88 28.34 38.71 Z" fill="url(#linear-gradient-13)" fill-rule="nonzero" node-id="436" stroke="none" target-height="8.32" target-width="8.68" target-x="19.66" target-y="35.39"></path><path d="M 28.34 38.91 C 28.34 40.68 26.40 42.11 24.00 42.11 C 21.60 42.11 19.66 40.68 19.66 38.91 C 19.66 37.14 21.60 35.71 24.00 35.71 C 26.40 35.71 28.34 37.14 28.34 38.91 Z" fill="url(#linear-gradient-14)" fill-rule="nonzero" node-id="438" stroke="none" target-height="6.4000015" target-width="8.68" target-x="19.66" target-y="35.71"></path><path d="M 24.06 35.71 L 24.00 35.71 L 23.94 35.71 C 21.57 35.71 19.66 37.15 19.66 38.90 C 19.67 39.47 19.87 40.02 20.23 40.46 L 20.38 40.46 C 21.32 40.47 22.25 40.27 23.11 39.89 C 23.68 39.63 24.32 39.63 24.89 39.89 C 25.75 40.27 26.68 40.47 27.62 40.46 L 27.77 40.46 C 28.13 40.02 28.33 39.47 28.34 38.90 C 28.34 37.16 26.43 35.74 24.06 35.71 Z" fill="url(#linear-gradient-15)" fill-rule="nonzero" node-id="440" stroke="none" target-height="4.756626" target-width="8.68" target-x="19.66" target-y="35.71"></path><path d="M 27.85 32.21 C 26.49 32.18 25.15 32.55 24.00 33.27 C 22.85 32.55 21.51 32.18 20.15 32.21 C 17.35 32.21 15.31 33.63 15.31 35.62 C 15.31 37.61 17.58 39.21 20.38 39.21 C 21.32 39.22 22.25 39.02 23.11 38.64 C 23.68 38.38 24.32 38.38 24.89 38.64 C 25.75 39.02 26.68 39.22 27.62 39.21 C 30.42 39.21 32.69 37.60 32.69 35.62 C 32.69 33.64 30.64 32.21 27.85 32.21 Z" fill="url(#linear-gradient-16)" fill-rule="nonzero" node-id="442" stroke="none" target-height="7.0345993" target-width="17.379997" target-x="15.31" target-y="32.182026"></path><path d="M 27.85 33.42 C 26.49 33.39 25.15 33.76 24.00 34.48 C 22.85 33.76 21.51 33.39 20.15 33.42 C 19.00 33.39 17.86 33.68 16.87 34.26 C 16.24 34.67 15.84 35.36 15.80 36.11 C 15.76 36.86 16.09 37.59 16.68 38.06 C 17.76 38.83 19.05 39.24 20.38 39.21 C 21.32 39.22 22.25 39.02 23.11 38.64 C 23.68 38.38 24.32 38.38 24.89 38.64 C 25.75 39.02 26.68 39.22 27.62 39.21 C 28.95 39.24 30.24 38.83 31.32 38.06 C 31.91 37.59 32.24 36.86 32.20 36.11 C 32.16 35.36 31.76 34.67 31.13 34.26 C 30.14 33.68 29.00 33.39 27.85 33.42 Z" fill="url(#linear-gradient-17)" fill-rule="nonzero" node-id="444" stroke="none" target-height="5.848301" target-width="16.477806" target-x="15.761097" target-y="33.3892"></path><path d="M 26.52 32.73 C 26.52 33.45 25.39 36.37 24.00 36.37 C 22.61 36.37 21.48 33.45 21.48 32.73 C 21.48 32.01 22.61 31.43 24.00 31.43 C 25.39 31.43 26.52 32.00 26.52 32.73 Z" fill="url(#linear-gradient-18)" fill-rule="nonzero" node-id="446" stroke="none" target-height="4.9399986" target-width="5.040001" target-x="21.48" target-y="31.43"></path><path d="M 4.82 30.10 C 5.62 25.48 8.43 21.45 12.49 19.10 C 19.61 14.99 28.37 14.99 35.49 19.10 C 39.55 21.45 42.36 25.48 43.16 30.10 L 44.45 32.00 L 43.18 24.70 C 42.38 20.08 39.57 16.05 35.51 13.70 C 28.39 9.59 19.63 9.59 12.51 13.70 C 8.45 16.05 5.64 20.08 4.84 24.70 L 3.55 32.00 Z" fill="url(#linear-gradient-19)" fill-rule="nonzero" node-id="448" stroke="none" target-height="22.408554" target-width="40.9" target-x="3.55" target-y="9.591446"></path><path d="M 16.77 29.08 C 16.77 29.88 16.12 30.53 15.32 30.53 C 14.52 30.53 13.87 29.88 13.87 29.08 C 13.87 28.28 14.52 27.63 15.32 27.63 C 16.12 27.63 16.77 28.28 16.77 29.08 Z" fill="url(#linear-gradient-20)" fill-rule="nonzero" node-id="450" stroke="none" target-height="2.9000015" target-width="2.9000006" target-x="13.87" target-y="27.63"></path><path d="M 15.32 27.63 C 14.52 27.63 13.87 28.28 13.87 29.08 L 15.32 29.08 Z" fill="url(#linear-gradient-21)" fill-rule="nonzero" node-id="452" stroke="none" target-height="1.4500008" target-width="1.4499998" target-x="13.87" target-y="27.63"></path><path d="M 34.13 29.08 C 34.13 29.88 33.48 30.53 32.68 30.53 C 31.88 30.53 31.23 29.88 31.23 29.08 C 31.23 28.28 31.88 27.63 32.68 27.63 C 33.48 27.63 34.13 28.28 34.13 29.08 Z" fill="url(#linear-gradient-22)" fill-rule="nonzero" node-id="454" stroke="none" target-height="2.9000015" target-width="2.9000015" target-x="31.23" target-y="27.63"></path><path d="M 32.68 27.63 C 31.88 27.63 31.23 28.28 31.23 29.08 L 32.68 29.08 Z" fill="url(#linear-gradient-23)" fill-rule="nonzero" node-id="456" stroke="none" target-height="1.4500008" target-width="1.4500008" target-x="31.23" target-y="27.63"></path><path d="M 26.52 32.73 C 26.26 33.94 25.23 34.82 24.00 34.91 C 22.77 34.82 21.75 33.94 21.48 32.74 C 21.48 32.02 22.61 31.44 24.00 31.44 C 25.39 31.44 26.52 32.00 26.52 32.73 Z" fill="url(#linear-gradient-24)" fill-rule="nonzero" node-id="458" stroke="none" target-height="3.4699993" target-width="5.040001" target-x="21.48" target-y="31.44"></path><path d="M 22.69 32.77 C 22.39 32.87 22.17 33.12 22.11 33.42 C 22.05 33.73 22.16 34.04 22.39 34.25 C 22.83 34.65 23.40 34.88 24.00 34.90 C 24.57 34.88 25.11 34.67 25.54 34.30 C 25.81 34.09 25.93 33.75 25.87 33.42 C 25.80 33.09 25.55 32.83 25.23 32.74 C 24.83 32.63 24.42 32.58 24.00 32.58 C 23.56 32.58 23.11 32.64 22.69 32.77 Z" fill="url(#linear-gradient-25)" fill-rule="nonzero" node-id="460" stroke="none" target-height="2.324089" target-width="3.8826294" target-x="22.048952" target-y="32.575912"></path><path d="M 18.35 31.84 C 18.35 32.57 16.99 32.34 15.35 32.34 C 13.71 32.34 12.35 32.57 12.35 31.84 C 12.35 31.11 13.71 30.52 15.35 30.52 C 16.99 30.52 18.35 31.11 18.35 31.84 Z" fill="url(#linear-gradient-26)" fill-rule="nonzero" node-id="462" stroke="none" target-height="2.0499992" target-width="6" target-x="12.35" target-y="30.52"></path><path d="M 29.65 31.84 C 29.65 32.57 31.01 32.34 32.65 32.34 C 34.29 32.34 35.65 32.57 35.65 31.84 C 35.65 31.11 34.29 30.52 32.65 30.52 C 31.01 30.52 29.65 31.11 29.65 31.84 Z" fill="url(#linear-gradient-27)" fill-rule="nonzero" node-id="464" stroke="none" target-height="2.0499992" target-width="6.000002" target-x="29.65" target-y="30.52"></path><path d="M 19.54 11.08 L 22.83 19.39 C 23.02 19.88 23.48 20.20 24.00 20.20 C 24.53 20.20 24.99 19.88 25.18 19.39 L 28.47 11.08 C 25.52 10.50 22.49 10.50 19.54 11.08 Z" fill="url(#linear-gradient-28)" fill-rule="nonzero" node-id="466" stroke="none" target-height="9.698466" target-width="8.929998" target-x="19.54" target-y="10.496589"></path><path d="M 28.46 11.08 C 27.80 10.95 27.14 10.86 26.46 10.79 L 25.99 10.79 C 24.66 10.67 23.32 10.67 21.99 10.79 L 21.52 10.79 C 20.85 10.86 20.19 10.95 19.52 11.08 L 19.52 11.08 L 21.52 16.19 C 23.14 16.02 24.78 16.02 26.40 16.19 L 28.40 11.08 Z" fill="url(#linear-gradient-29)" fill-rule="nonzero" node-id="468" stroke="none" target-height="5.516163" target-width="8.939999" target-x="19.52" target-y="10.673838"></path><path d="M 19.11 35.01 C 19.11 35.22 18.94 35.39 18.73 35.39 C 18.52 35.39 18.35 35.22 18.35 35.01 C 18.35 34.80 18.52 34.63 18.73 34.63 C 18.94 34.63 19.11 34.80 19.11 35.01 Z" fill="url(#linear-gradient-30)" fill-rule="nonzero" node-id="470" stroke="none" target-height="0.7599983" target-width="0.7600002" target-x="18.35" target-y="34.63"></path><path d="M 20.91 36.62 C 20.91 36.83 20.74 37.00 20.53 37.00 C 20.32 37.00 20.15 36.83 20.15 36.62 C 20.15 36.41 20.32 36.24 20.53 36.24 C 20.74 36.24 20.91 36.41 20.91 36.62 Z" fill="url(#linear-gradient-31)" fill-rule="nonzero" node-id="472" stroke="none" target-height="0.7599983" target-width="0.7600002" target-x="20.15" target-y="36.24"></path><path d="M 18.72 37.00 C 18.72 37.21 18.55 37.38 18.34 37.38 C 18.13 37.38 17.96 37.21 17.96 37.00 C 17.96 36.79 18.13 36.62 18.34 36.62 C 18.55 36.62 18.72 36.79 18.72 37.00 Z" fill="url(#linear-gradient-32)" fill-rule="nonzero" node-id="474" stroke="none" target-height="0.76000214" target-width="0.7600002" target-x="17.96" target-y="36.62"></path><path d="M 29.65 35.01 C 29.65 35.22 29.48 35.39 29.27 35.39 C 29.06 35.39 28.89 35.22 28.89 35.01 C 28.89 34.80 29.06 34.63 29.27 34.63 C 29.48 34.63 29.65 34.80 29.65 35.01 Z" fill="url(#linear-gradient-33)" fill-rule="nonzero" node-id="476" stroke="none" target-height="0.7599983" target-width="0.7600002" target-x="28.89" target-y="34.63"></path><path d="M 27.85 36.62 C 27.85 36.83 27.68 37.00 27.47 37.00 C 27.26 37.00 27.09 36.83 27.09 36.62 C 27.09 36.41 27.26 36.24 27.47 36.24 C 27.68 36.24 27.85 36.41 27.85 36.62 Z" fill="url(#linear-gradient-34)" fill-rule="nonzero" node-id="478" stroke="none" target-height="0.7599983" target-width="0.7600002" target-x="27.09" target-y="36.24"></path><path d="M 30.04 37.00 C 30.04 37.21 29.87 37.38 29.66 37.38 C 29.45 37.38 29.28 37.21 29.28 37.00 C 29.28 36.79 29.45 36.62 29.66 36.62 C 29.87 36.62 30.04 36.79 30.04 37.00 Z" fill="url(#linear-gradient-35)" fill-rule="nonzero" node-id="480" stroke="none" target-height="0.76000214" target-width="0.7600002" target-x="29.28" target-y="36.62"></path><path d="M 9.45 32.08 C 7.87 31.79 6.38 31.15 5.10 30.19 C 4.71 29.91 4.35 29.61 4.00 29.28 L 3.38 33.00 C 5.38 33.65 7.51 33.73 9.55 33.23 C 9.87 33.20 10.10 32.92 10.07 32.60 C 10.05 32.29 9.77 32.05 9.45 32.08 Z" fill="url(#linear-gradient-36)" fill-rule="nonzero" node-id="482" stroke="none" target-height="4.447592" target-width="6.7226143" target-x="3.38" target-y="29.28"></path><path d="M 6.52 36.15 C 5.39 36.53 4.20 36.71 3.00 36.68 C 3.16 37.56 3.64 38.35 4.34 38.90 C 5.40 38.51 6.36 37.88 7.14 37.06 C 7.31 36.86 7.32 36.58 7.18 36.37 C 7.03 36.15 6.76 36.06 6.52 36.15 Z" fill="url(#linear-gradient-37)" fill-rule="nonzero" node-id="484" stroke="none" target-height="2.8351097" target-width="4.324362" target-x="3" target-y="36.06489"></path><path d="M 44.00 29.28 C 43.66 29.61 43.29 29.92 42.91 30.20 C 41.63 31.16 40.14 31.80 38.56 32.09 C 38.30 32.13 38.11 32.35 38.09 32.61 C 38.07 32.86 38.22 33.10 38.47 33.19 C 40.50 33.70 42.63 33.63 44.62 33.00 Z" fill="url(#linear-gradient-38)" fill-rule="nonzero" node-id="486" stroke="none" target-height="4.41675" target-width="6.552021" target-x="38.067978" target-y="29.28"></path><path d="M 41.48 36.15 C 41.24 36.06 40.97 36.15 40.82 36.37 C 40.68 36.58 40.69 36.86 40.86 37.06 C 41.64 37.88 42.60 38.51 43.66 38.90 C 44.36 38.35 44.84 37.56 45.00 36.68 C 43.80 36.71 42.61 36.53 41.48 36.15 Z" fill="url(#linear-gradient-39)" fill-rule="nonzero" node-id="488" stroke="none" target-height="2.8351097" target-width="4.32436" target-x="40.67564" target-y="36.06489"></path></svg>